<svg width="316" height="468" viewBox="0 0 316 468" fill="none" xmlns="http://www.w3.org/2000/svg">
<path d="M148.376 7.18182V29H145.074V10.4844H144.946L139.726 13.8935V10.7401L145.17 7.18182H148.376ZM152.778 29V26.6136L160.161 18.9645C160.95 18.1335 161.599 17.4055 162.111 16.7805C162.629 16.1484 163.016 15.5483 163.272 14.9801C163.528 14.4119 163.656 13.8082 163.656 13.169C163.656 12.4446 163.485 11.8196 163.144 11.294C162.803 10.7614 162.338 10.353 161.749 10.0689C161.159 9.7777 160.495 9.6321 159.756 9.6321C158.975 9.6321 158.293 9.7919 157.711 10.1115C157.129 10.4311 156.681 10.8821 156.369 11.4645C156.056 12.0469 155.9 12.7287 155.9 13.5099H152.757C152.757 12.1818 153.063 11.0206 153.673 10.0263C154.284 9.03196 155.122 8.26136 156.188 7.71449C157.253 7.16051 158.464 6.88352 159.82 6.88352C161.191 6.88352 162.398 7.15696 163.442 7.70383C164.494 8.24361 165.314 8.98224 165.903 9.91974C166.493 10.8501 166.788 11.9013 166.788 13.0732C166.788 13.8828 166.635 14.6747 166.33 15.4489C166.031 16.223 165.509 17.0859 164.763 18.0376C164.018 18.9822 162.981 20.1293 161.653 21.4787L157.317 26.017V26.1768H167.139V29H152.778Z" fill="black"/>
<path d="M301.695 242.298C300.232 242.298 298.925 242.046 297.774 241.542C296.631 241.038 295.725 240.338 295.058 239.443C294.397 238.541 294.042 237.497 293.992 236.311H297.337C297.38 236.957 297.597 237.518 297.987 237.994C298.385 238.463 298.903 238.825 299.543 239.081C300.182 239.337 300.892 239.464 301.673 239.464C302.533 239.464 303.293 239.315 303.953 239.017C304.621 238.719 305.143 238.303 305.519 237.771C305.896 237.231 306.084 236.609 306.084 235.906C306.084 235.175 305.896 234.532 305.519 233.978C305.15 233.417 304.607 232.977 303.889 232.657C303.179 232.337 302.32 232.178 301.311 232.178H299.468V229.493H301.311C302.121 229.493 302.831 229.347 303.442 229.056C304.06 228.765 304.543 228.36 304.891 227.842C305.239 227.316 305.413 226.702 305.413 225.999C305.413 225.324 305.26 224.738 304.955 224.241C304.656 223.737 304.23 223.342 303.676 223.058C303.129 222.774 302.483 222.632 301.737 222.632C301.027 222.632 300.363 222.763 299.745 223.026C299.134 223.282 298.637 223.651 298.254 224.134C297.87 224.61 297.664 225.182 297.636 225.849H294.45C294.486 224.67 294.834 223.634 295.494 222.739C296.162 221.844 297.043 221.144 298.136 220.64C299.23 220.136 300.445 219.884 301.78 219.884C303.179 219.884 304.386 220.157 305.402 220.704C306.425 221.244 307.213 221.964 307.767 222.866C308.328 223.768 308.605 224.756 308.598 225.828C308.605 227.05 308.264 228.087 307.575 228.939C306.893 229.791 305.984 230.363 304.848 230.654V230.825C306.297 231.045 307.419 231.62 308.214 232.55C309.017 233.481 309.415 234.635 309.408 236.013C309.415 237.213 309.081 238.289 308.406 239.241C307.739 240.192 306.826 240.942 305.668 241.489C304.511 242.028 303.186 242.298 301.695 242.298Z" fill="black"/>
<path d="M153.716 461.298C152.743 461.284 151.784 461.107 150.839 460.766C149.902 460.425 149.05 459.857 148.283 459.061C147.516 458.266 146.901 457.197 146.44 455.854C145.985 454.512 145.758 452.836 145.758 450.826C145.758 448.923 145.946 447.232 146.322 445.755C146.706 444.278 147.256 443.031 147.974 442.016C148.691 440.993 149.558 440.215 150.573 439.683C151.589 439.15 152.729 438.884 153.993 438.884C155.293 438.884 156.447 439.139 157.455 439.651C158.464 440.162 159.281 440.869 159.906 441.771C160.538 442.673 160.939 443.699 161.109 444.849H157.86C157.64 443.94 157.203 443.198 156.55 442.623C155.896 442.048 155.044 441.76 153.993 441.76C152.395 441.76 151.148 442.456 150.254 443.848C149.366 445.24 148.918 447.175 148.911 449.654H149.071C149.447 449.036 149.909 448.511 150.456 448.077C151.01 447.637 151.628 447.3 152.31 447.065C152.999 446.824 153.723 446.703 154.483 446.703C155.747 446.703 156.891 447.012 157.913 447.63C158.943 448.241 159.763 449.086 160.374 450.165C160.985 451.245 161.29 452.481 161.29 453.873C161.29 455.265 160.974 456.526 160.342 457.655C159.717 458.784 158.837 459.679 157.7 460.339C156.564 460.993 155.236 461.312 153.716 461.298ZM153.705 458.528C154.543 458.528 155.293 458.322 155.953 457.911C156.614 457.499 157.136 456.945 157.519 456.249C157.903 455.553 158.094 454.775 158.094 453.915C158.094 453.077 157.906 452.314 157.53 451.625C157.161 450.936 156.649 450.389 155.996 449.984C155.349 449.58 154.611 449.377 153.78 449.377C153.148 449.377 152.562 449.498 152.022 449.739C151.489 449.981 151.021 450.315 150.616 450.741C150.211 451.167 149.891 451.657 149.657 452.211C149.43 452.758 149.316 453.337 149.316 453.947C149.316 454.764 149.504 455.521 149.881 456.217C150.264 456.913 150.786 457.474 151.447 457.9C152.114 458.319 152.867 458.528 153.705 458.528Z" fill="black"/>
<path d="M9.35369 219.884C10.3267 219.891 11.2855 220.068 12.2301 220.416C13.1747 220.764 14.027 221.332 14.7869 222.121C15.554 222.909 16.1648 223.974 16.6193 225.317C17.081 226.652 17.3153 228.314 17.3224 230.303C17.3224 232.213 17.1307 233.914 16.7472 235.406C16.3636 236.89 15.8132 238.143 15.0959 239.166C14.3857 240.189 13.5227 240.967 12.5071 241.499C11.4915 242.032 10.348 242.298 9.0767 242.298C7.77699 242.298 6.62287 242.043 5.61435 241.531C4.60582 241.02 3.78551 240.313 3.15341 239.411C2.52131 238.502 2.12713 237.458 1.97088 236.279H5.22017C5.43324 237.217 5.86648 237.977 6.51989 238.559C7.1804 239.134 8.03267 239.422 9.0767 239.422C10.6747 239.422 11.9212 238.726 12.8161 237.334C13.7109 235.935 14.1619 233.982 14.169 231.474H13.9986C13.6293 232.085 13.1676 232.611 12.6136 233.051C12.0668 233.491 11.4524 233.832 10.7706 234.074C10.0888 234.315 9.3608 234.436 8.58665 234.436C7.32955 234.436 6.18608 234.127 5.15625 233.509C4.12642 232.891 3.30611 232.043 2.69531 230.963C2.08452 229.884 1.77912 228.651 1.77912 227.266C1.77912 225.888 2.09162 224.638 2.71662 223.516C3.34872 222.394 4.2294 221.506 5.35867 220.853C6.49503 220.192 7.8267 219.869 9.35369 219.884ZM9.36435 222.653C8.53338 222.653 7.78409 222.859 7.11648 223.271C6.45597 223.676 5.93395 224.227 5.55043 224.923C5.1669 225.612 4.97514 226.379 4.97514 227.224C4.97514 228.069 5.1598 228.836 5.52912 229.525C5.90554 230.207 6.4169 230.75 7.06321 231.155C7.71662 231.553 8.46236 231.751 9.30043 231.751C9.92543 231.751 10.5078 231.631 11.0476 231.389C11.5874 231.148 12.0597 230.814 12.4645 230.388C12.8693 229.955 13.1854 229.464 13.4126 228.918C13.6399 228.371 13.7536 227.795 13.7536 227.192C13.7536 226.389 13.5618 225.643 13.1783 224.955C12.8018 224.266 12.2834 223.712 11.6229 223.293C10.9624 222.866 10.2095 222.653 9.36435 222.653Z" fill="black"/>
<path d="M10.3764 7.18182V29H7.07386V10.4844H6.94602L1.72585 13.8935V10.7401L7.16974 7.18182H10.3764ZM23.0561 7.18182V29H19.7536V10.4844H19.6257L14.4055 13.8935V10.7401L19.8494 7.18182H23.0561Z" fill="black"/>
<path d="M307.376 7.18182V29H304.074V10.4844H303.946L298.726 13.8935V10.7401L304.17 7.18182H307.376Z" fill="black"/>
<path d="M306.3 461.298C304.965 461.298 303.765 461.043 302.7 460.531C301.641 460.013 300.796 459.303 300.164 458.401C299.532 457.499 299.195 456.469 299.152 455.311H302.348C302.426 456.249 302.842 457.019 303.594 457.623C304.347 458.227 305.249 458.528 306.3 458.528C307.138 458.528 307.881 458.337 308.527 457.953C309.18 457.562 309.692 457.026 310.061 456.344C310.438 455.663 310.626 454.885 310.626 454.011C310.626 453.124 310.434 452.332 310.05 451.636C309.667 450.94 309.138 450.393 308.463 449.995C307.795 449.597 307.028 449.395 306.162 449.388C305.501 449.388 304.837 449.501 304.17 449.729C303.502 449.956 302.962 450.254 302.55 450.624L299.536 450.176L300.761 439.182H312.756V442.005H303.499L302.806 448.109H302.934C303.36 447.697 303.925 447.353 304.628 447.076C305.338 446.799 306.098 446.661 306.908 446.661C308.236 446.661 309.418 446.977 310.455 447.609C311.499 448.241 312.32 449.104 312.916 450.197C313.52 451.284 313.818 452.534 313.811 453.947C313.818 455.361 313.499 456.621 312.852 457.729C312.213 458.837 311.325 459.711 310.189 460.35C309.06 460.982 307.763 461.298 306.3 461.298Z" fill="black"/>
<path d="M2.83381 461L12.358 442.165V442.005H1.34233V439.182H15.767V442.101L6.27486 461H2.83381Z" fill="black"/>
</svg>
